<svg xmlns="http://www.w3.org/2000/svg" viewBox="0 0 561 199"><path fill="#FBAD1F" d="M99.7 99.7V54.1H64.9L46.2 35.4V.6H.6v45.6h34.9l18.7 18.7V89l-18.7 18.7H.6v45.6h45.6v-34.8l18.7-18.7h34.8zM15.8 15.8H31V31H15.8V15.8zM31 138H15.8v-15.2H31V138z"/><path fill="#FFF" d="M150.2 198.8h-20.1V99.7h20.1v6c3.2-3.9 10.4-7.6 18.1-7.6 21.1 0 33 17.5 33 37.9s-12 37.7-33 37.7c-7.8 0-14.9-3.7-18.1-7.6v32.7zm0-51c2.4 5 7.8 8.4 13.6 8.4 10.9 0 17.3-8.7 17.3-20.2 0-11.7-6.5-20.4-17.3-20.4-6 0-11.2 3.6-13.6 8.4v23.8zM274.2 172.1h-20.1v-6.6c-4 4.5-11 8.3-19.4 8.3-16.2 0-25.4-10.7-25.4-26.7V99.7h20.1v43.2c0 7.6 3.7 12.8 11.7 12.8 6.2 0 11.5-3.7 13-10v-46h20.2v72.4zM307.6 198.8h-20.1V99.7h20.1v6c3.2-3.9 10.4-7.6 18.1-7.6 21.1 0 33 17.5 33 37.9s-12 37.7-33 37.7c-7.8 0-14.9-3.7-18.1-7.6v32.7zm0-51c2.4 5 7.8 8.4 13.6 8.4 10.9 0 17.3-8.7 17.3-20.2 0-11.7-6.5-20.4-17.3-20.4-6 0-11.2 3.6-13.6 8.4v23.8zM387.6 198.8h-20.1V99.7h20.1v6c3.2-3.9 10.4-7.6 18.1-7.6 21.1 0 33 17.5 33 37.9s-12 37.7-33 37.7c-7.8 0-14.9-3.7-18.1-7.6v32.7zm0-51c2.4 5 7.8 8.4 13.6 8.4 10.9 0 17.3-8.7 17.3-20.2 0-11.7-6.5-20.4-17.3-20.4-6 0-11.2 3.6-13.6 8.4v23.8zM510.8 148.4c-2.6 15.4-13.9 25.3-32.1 25.3-21.1 0-35.1-15.4-35.1-37.7 0-21.9 14.6-37.9 34.8-37.9 21.2 0 32.9 14.7 32.9 36v6.2H463c.6 10.9 6.8 17.3 15.7 17.3 6.8 0 11.8-2.9 13.4-9.1h18.7zM463.5 128h28c-.2-7.6-4.7-13.6-13-13.6-7.7 0-13.2 4.7-15 13.6zM524.4 115.9h-11V99.7h11V80.1h19.9v19.6h15.9v16.2h-15.9v31.7c0 5.7 3.1 8.3 8.3 8.3 3.1 0 6.5-1 8.7-2.4v17.8c-2.8 1.5-7.6 2.3-13 2.3-14.7 0-24-7.3-24-23.3v-34.4z"/></svg>